<svg id="Layer_1" data-name="Layer 1" xmlns="http://www.w3.org/2000/svg" viewBox="0 0 789.81 755.18"><title>Logo</title><path d="M119.12,125.2h143.8l59.76,266.3,20.54,103.75H347L367.5,391.5l59.76-266.3h143.8V876.83H455.28V644c0-84.15,12.13-267.45,17.74-348.14h-2.8L423.53,496.41l-46.69,181H309.61L262,496.41,218.1,295.82h-2.81C221.83,376.51,233,559.81,233,644V876.83H119.12Z" transform="translate(-119.12 -121.65)"/><path d="M678.14,751.72c0-62.31,8.78-94.78,8.78-150.06,0-30.72-25.45-63.19-120.23-64.94V461.25c94.78-1.75,120.23-34.22,120.23-64.94,0-54.4-8.78-88.63-8.78-150,0-94.78,50.9-124.61,163.22-124.61h67.57v68.44H873c-72.83,0-89.51,12.29-89.51,61.43,0,46.51,4.39,91.27,4.39,143,0,66.69-25.45,92.14-87.75,102.67v3.51c62.3,10.53,87.75,36,87.75,102.67,0,53.53-4.39,95.65-4.39,143,0,49.14,16.68,61.43,89.51,61.43h36v68.45H841.36C729,876.33,678.14,846.49,678.14,751.72Z" transform="translate(-119.12 -121.65)"/></svg>
